<svg xmlns="http://www.w3.org/2000/svg" viewBox="0 0 205.53 278.13"><defs><style>.cls-1{fill:#50bfa5;}</style></defs><g id="Layer_2" data-name="Layer 2"><g id="Layer_1-2" data-name="Layer 1"><polygon class="cls-1" points="77.64 99.48 77.64 99.77 77.34 99.48 77.64 99.48"/><path class="cls-1" d="M128.51,106H128v-.23a1.73,1.73,0,0,0,.31.14Z"/><path class="cls-1" d="M130.36,103.06a1,1,0,1,1-1-1A1,1,0,0,1,130.36,103.06Z"/><path class="cls-1" d="M121.79,127.89l-.18,0h.18Z"/><path class="cls-1" d="M197.68,94.87a7.84,7.84,0,0,0-7.15,4.61H141.17V84.07H151a7.87,7.87,0,1,0,0-6.49h-9.86V64.36H128V40.45a7.86,7.86,0,1,0-6.49,0V64.36H106V15a7.87,7.87,0,1,0-6.49,0V64.36H84.13V54.5a7.87,7.87,0,0,0,0-14.32,7.87,7.87,0,0,0-6.49,0,7.86,7.86,0,0,0,0,14.32v9.86H64.42V77.58H54.55a7.86,7.86,0,1,0,0,6.49h9.87V99.48H15.05a7.86,7.86,0,1,0,0,6.49H64.42V121.4H40.5a7.87,7.87,0,1,0,0,6.49H64.42v13.22H77.64V151a7.86,7.86,0,1,0,6.49,0v-9.87H99.54v49.36a7.86,7.86,0,1,0,6.49,0V141.11h15.43V165A7.85,7.85,0,0,0,125.67,180,7.85,7.85,0,0,0,128,165V141.11h13.22V127.89h23.92a7.86,7.86,0,1,0,0-6.49H141.17V106h49.36a7.85,7.85,0,1,0,7.15-11.1ZM103.35,77.58a3,3,0,0,1,2.44-1.23H106a3,3,0,0,1,2.79,3,3.11,3.11,0,0,1-.19,1.06L118.8,90.63v10l1.52,1.51a3.09,3.09,0,0,1,1.3-.28,3,3,0,1,1-2.83,1.91l-2.21-2.21h0v-10l-9.45-9.45a3,3,0,0,1-1.33.31,3,3,0,0,1-2.44-4.84ZM89,78.49h5.1a3,3,0,0,1,5.93.9,3.06,3.06,0,0,1-.24,1.17l12.08,12.08v3.62a3,3,0,1,1-2.23.1v-2.8L98.21,82.16a3.16,3.16,0,0,1-1.24.26,3,3,0,0,1-2.72-1.7h-3v1.59l-4.54,4.54a3,3,0,0,1,.45,1.59,3,3,0,1,1-3-3,2.73,2.73,0,0,1,.76.1L89,81.38Zm12.66,19.82V92.54l-3.27-3.27h-2.6a3,3,0,0,1-5.85-1.11,3,3,0,0,1,3-3A3,3,0,0,1,95.77,87H99.3l4.57,4.57v6.7h-.11a3,3,0,1,1-2,0ZM99,95.1a3,3,0,0,1-5.83,1.17v.08H83.12a3,3,0,1,1,.1-2.23h9.9a3,3,0,0,1,5.9,1Zm-22,7.19h0l-2.82-2.81-1-1h0V89l8.23-8.23a2.93,2.93,0,0,1-.36-1.41,3.07,3.07,0,0,1,3-3h0A3,3,0,1,1,83,82.2l.11.11L75.42,90v7.59l1.92,1.93h.3v.29l.28.29H88.59l5.77,5.78H106a3,3,0,1,1,0,2.23H93.43l-5.78-5.78Zm38.57,33.3a3,3,0,0,1-3-3,3,3,0,0,1,2-2.86v-13.8a3,3,0,0,1-1.83-1.75h-10a3,3,0,0,1-5.63,0H90.54l-4.36-4.35a2.87,2.87,0,0,1-1.1.21,3,3,0,1,1,3-3,3.17,3.17,0,0,1-.29,1.3l3.65,3.65h5.72a3,3,0,0,1,5.63,0h10a3,3,0,1,1,4.06,3.88v14a3,3,0,0,1-1.25,5.8Zm14.91-29.71a1.84,1.84,0,0,1-.25.09h.25v1.52l-7.76,7.76V116a3,3,0,0,1,0,5.64v2.47a3,3,0,0,1,1.91,2.82,2.86,2.86,0,0,1-.16,1,3,3,0,0,1-2.86,2.06h-.16a3,3,0,0,1-1-5.85v-2.47a3,3,0,0,1,0-5.64v-1.67h0l7.76-7.76V106H128v-.23a3,3,0,0,1-1.61-2.68,3.17,3.17,0,0,1,.21-1.11l-4.28-4.28V91a3,3,0,1,1,2.24,0v5.77l3.44,3.44v.19l.13-.06a3,3,0,0,1,1.3-.29,3,3,0,0,1,1.11,5.85Zm-1.11-9.63a3,3,0,0,1-1.12-5.86V86.76l-6-6h-4.84a3,3,0,1,1,.17-2.23h5.59L126.68,82,128,83.29h0l.77.77h0l1.77,1.77v4.55a3,3,0,0,1-1.11,5.86Z"/><path class="cls-1" d="M121.46,127.89h0l.16,0,.17,0Zm6.8-22a1.73,1.73,0,0,1-.31-.14V106h.56Zm1.12-3.81a1,1,0,1,0,1,1A1,1,0,0,0,129.38,102.07Zm-52-2.59.3.29v-.29Z"/><path class="cls-1" d="M86.06,107a1,1,0,1,1-1-1A1,1,0,0,1,86.06,107Z"/><path class="cls-1" d="M101,113a1,1,0,1,1-1-1A1,1,0,0,1,101,113Z"/><path class="cls-1" d="M116.57,132.55a1,1,0,1,1-1-1A1,1,0,0,1,116.57,132.55Z"/><path class="cls-1" d="M116.57,113a1,1,0,1,1-1-1A1,1,0,0,1,116.57,113Z"/><path class="cls-1" d="M121.62,125.93a1,1,0,0,0-.16,2h.33a1,1,0,0,0-.17-2Zm0-8.11a1,1,0,1,0,1,1A1,1,0,0,0,121.62,117.82Zm0,0a1,1,0,1,0,1,1A1,1,0,0,0,121.62,117.82Zm0,8.11a1,1,0,0,0-.16,2h.33a1,1,0,0,0-.17-2Zm1.77-38.77a1,1,0,0,0-1,1,1,1,0,1,0,1-1Zm6,5.07a1,1,0,1,0,1,1A1,1,0,0,0,129.38,92.23ZM105.79,78.4a1,1,0,1,0,1,1A1,1,0,0,0,105.79,78.4Zm8.87,0a1,1,0,1,0,1,1A1,1,0,0,0,114.66,78.4Zm7,39.42a1,1,0,1,0,1,1A1,1,0,0,0,121.62,117.82Zm0,8.11a1,1,0,0,0-.16,2h.33a1,1,0,0,0-.17-2Zm1.77-38.77a1,1,0,0,0-1,1,1,1,0,1,0,1-1Zm6,5.07a1,1,0,1,0,1,1A1,1,0,0,0,129.38,92.23ZM105.79,78.4a1,1,0,1,0,1,1A1,1,0,0,0,105.79,78.4Zm5.08,19.74a1,1,0,1,0,0,2,1,1,0,0,0,0-2Zm3.79-19.74a1,1,0,1,0,1,1A1,1,0,0,0,114.66,78.4Zm7,39.42a1,1,0,1,0,1,1A1,1,0,0,0,121.62,117.82Zm0-13.9a1,1,0,1,0,1,1A1,1,0,0,0,121.62,103.92Zm0,22a1,1,0,0,0-.16,2h.33a1,1,0,0,0-.17-2Zm1.77-38.77a1,1,0,0,0-1,1,1,1,0,1,0,1-1Zm6,5.07a1,1,0,1,0,1,1A1,1,0,0,0,129.38,92.23Zm-18.51,5.91a1,1,0,1,0,0,2,1,1,0,0,0,0-2ZM84.09,87.45a1,1,0,1,0,1,1A1,1,0,0,0,84.09,87.45ZM97,78.4a1,1,0,1,0,1,1A1,1,0,0,0,97,78.4Zm8.82,0a1,1,0,1,0,1,1A1,1,0,0,0,105.79,78.4Zm5.08,19.74a1,1,0,1,0,0,2,1,1,0,0,0,0-2Zm3.79-19.74a1,1,0,1,0,1,1A1,1,0,0,0,114.66,78.4Zm7,39.42a1,1,0,1,0,1,1A1,1,0,0,0,121.62,117.82Zm0-13.9a1,1,0,1,0,1,1A1,1,0,0,0,121.62,103.92Zm0,22a1,1,0,0,0-.16,2h.33a1,1,0,0,0-.17-2Zm1.77-38.77a1,1,0,0,0-1,1,1,1,0,1,0,1-1Zm6,5.07a1,1,0,1,0,1,1A1,1,0,0,0,129.38,92.23Zm-18.51,5.91a1,1,0,1,0,0,2,1,1,0,0,0,0-2ZM97,78.4a1,1,0,1,0,1,1A1,1,0,0,0,97,78.4Zm-12.88,9a1,1,0,1,0,1,1A1,1,0,0,0,84.09,87.45Zm-3.73,6.67a1,1,0,1,0,1,1A1,1,0,0,0,80.36,94.12Zm3.73-6.67a1,1,0,1,0,1,1A1,1,0,0,0,84.09,87.45ZM96,94.12a1,1,0,1,0,1,1A1,1,0,0,0,96,94.12ZM97,78.4a1,1,0,1,0,1,1A1,1,0,0,0,97,78.4Zm5.78,21.78a1,1,0,1,0,1,1A1,1,0,0,0,102.75,100.18Zm3-21.78a1,1,0,1,0,1,1A1,1,0,0,0,105.79,78.4Zm5.08,19.74a1,1,0,1,0,0,2,1,1,0,0,0,0-2Zm3.79-19.74a1,1,0,1,0,1,1A1,1,0,0,0,114.66,78.4Zm7,39.42a1,1,0,1,0,1,1A1,1,0,0,0,121.62,117.82Zm0-13.9a1,1,0,1,0,1,1A1,1,0,0,0,121.62,103.92Zm0,22a1,1,0,0,0-.16,2h.33a1,1,0,0,0-.17-2Zm1.77-38.77a1,1,0,0,0-1,1,1,1,0,1,0,1-1Zm6,5.07a1,1,0,1,0,1,1A1,1,0,0,0,129.38,92.23ZM96,94.12a1,1,0,1,0,1,1A1,1,0,0,0,96,94.12Zm-15.63,0a1,1,0,1,0,1,1A1,1,0,0,0,80.36,94.12Zm22.39,6.06a1,1,0,1,0,1,1A1,1,0,0,0,102.75,100.18Zm8.12-2a1,1,0,1,0,0,2,1,1,0,0,0,0-2ZM97,78.4a1,1,0,1,0,1,1A1,1,0,0,0,97,78.4Zm-12.88,9a1,1,0,1,0,1,1A1,1,0,0,0,84.09,87.45Zm-3.73,6.67a1,1,0,1,0,1,1A1,1,0,0,0,80.36,94.12Zm3.73-6.67a1,1,0,1,0,1,1A1,1,0,0,0,84.09,87.45Zm0-9a1,1,0,1,0,0,2,1,1,0,0,0,0-2ZM93,87.16a1,1,0,0,0-1,1,1,1,0,1,0,1-1Zm3,7a1,1,0,1,0,1,1A1,1,0,0,0,96,94.12ZM97,78.4a1,1,0,1,0,1,1A1,1,0,0,0,97,78.4Zm5.78,21.78a1,1,0,1,0,1,1A1,1,0,0,0,102.75,100.18Zm3-21.78a1,1,0,1,0,1,1A1,1,0,0,0,105.79,78.4Zm5.08,19.74a1,1,0,1,0,0,2,1,1,0,0,0,0-2Zm3.79-19.74a1,1,0,1,0,1,1A1,1,0,0,0,114.66,78.4Zm7,39.42a1,1,0,1,0,1,1A1,1,0,0,0,121.62,117.82Zm0-13.9a1,1,0,1,0,1,1A1,1,0,0,0,121.62,103.92Zm0,22a1,1,0,0,0-.16,2h.33a1,1,0,0,0-.17-2Zm1.77-38.77a1,1,0,0,0-1,1,1,1,0,1,0,1-1Zm6,5.07a1,1,0,1,0,1,1A1,1,0,0,0,129.38,92.23ZM96,94.12a1,1,0,1,0,1,1A1,1,0,0,0,96,94.12Zm-15.63,0a1,1,0,1,0,1,1A1,1,0,0,0,80.36,94.12Zm22.39,6.06a1,1,0,1,0,1,1A1,1,0,0,0,102.75,100.18ZM93,87.16a1,1,0,0,0-1,1,1,1,0,1,0,1-1Zm17.91,11a1,1,0,1,0,0,2,1,1,0,0,0,0-2ZM97,78.4a1,1,0,1,0,1,1A1,1,0,0,0,97,78.4Zm-12.88,9a1,1,0,1,0,1,1A1,1,0,0,0,84.09,87.45Zm-3.73,6.67a1,1,0,1,0,1,1A1,1,0,0,0,80.36,94.12Zm3.73-6.67a1,1,0,1,0,1,1A1,1,0,0,0,84.09,87.45Zm0-9a1,1,0,1,0,0,2,1,1,0,0,0,0-2ZM93,87.16a1,1,0,0,0-1,1,1,1,0,1,0,1-1Zm3,7a1,1,0,1,0,1,1A1,1,0,0,0,96,94.12ZM97,78.4a1,1,0,1,0,1,1A1,1,0,0,0,97,78.4Zm5.78,21.78a1,1,0,1,0,1,1A1,1,0,0,0,102.75,100.18Zm3-21.78a1,1,0,1,0,1,1A1,1,0,0,0,105.79,78.4Zm3,27.57a1,1,0,1,0,0,2,1,1,0,0,0,0-2Zm2.05-7.83a1,1,0,1,0,0,2,1,1,0,0,0,0-2Zm3.79-19.74a1,1,0,1,0,1,1A1,1,0,0,0,114.66,78.4Zm7,39.42a1,1,0,1,0,1,1A1,1,0,0,0,121.62,117.82Zm0-13.9a1,1,0,1,0,1,1A1,1,0,0,0,121.62,103.92Zm0,22a1,1,0,0,0-.16,2h.33a1,1,0,0,0-.17-2Zm1.77-38.77a1,1,0,0,0-1,1,1,1,0,1,0,1-1Zm6,5.07a1,1,0,1,0,1,1A1,1,0,0,0,129.38,92.23Zm-18.51,5.91a1,1,0,1,0,0,2,1,1,0,0,0,0-2ZM97,78.4a1,1,0,1,0,1,1A1,1,0,0,0,97,78.4Zm-12.88,9a1,1,0,1,0,1,1A1,1,0,0,0,84.09,87.45Zm18.66,12.73a1,1,0,1,0,1,1A1,1,0,0,0,102.75,100.18ZM93,87.16a1,1,0,0,0-1,1,1,1,0,1,0,1-1Zm3,7a1,1,0,1,0,1,1A1,1,0,0,0,96,94.12Zm-15.63,0a1,1,0,1,0,1,1A1,1,0,0,0,80.36,94.12Zm0,0a1,1,0,1,0,1,1A1,1,0,0,0,80.36,94.12Zm3.73-6.67a1,1,0,1,0,1,1A1,1,0,0,0,84.09,87.45Zm0-9a1,1,0,1,0,0,2,1,1,0,0,0,0-2ZM93,87.16a1,1,0,0,0-1,1,1,1,0,1,0,1-1Zm3,7a1,1,0,1,0,1,1A1,1,0,0,0,96,94.12ZM97,78.4a1,1,0,1,0,1,1A1,1,0,0,0,97,78.4Zm5.78,21.78a1,1,0,1,0,1,1A1,1,0,0,0,102.75,100.18Zm3-21.78a1,1,0,1,0,1,1A1,1,0,0,0,105.79,78.4Zm3,27.57a1,1,0,1,0,0,2,1,1,0,0,0,0-2Zm2.05-7.83a1,1,0,1,0,0,2,1,1,0,0,0,0-2Zm3.79-19.74a1,1,0,1,0,1,1A1,1,0,0,0,114.66,78.4Zm7,47.53a1,1,0,0,0-.16,2h.33a1,1,0,0,0-.17-2Zm0-8.11a1,1,0,1,0,1,1A1,1,0,0,0,121.62,117.82Zm0-13.9a1,1,0,1,0,1,1A1,1,0,0,0,121.62,103.92Zm1.77-16.76a1,1,0,0,0-1,1,1,1,0,1,0,1-1Zm6,5.07a1,1,0,1,0,1,1A1,1,0,0,0,129.38,92.23Zm-49,1.89a1,1,0,1,0,1,1A1,1,0,0,0,80.36,94.12Zm15.63,0a1,1,0,1,0,1,1A1,1,0,0,0,96,94.12Zm-3-7a1,1,0,0,0-1,1,1,1,0,1,0,1-1Zm9.79,13a1,1,0,1,0,1,1A1,1,0,0,0,102.75,100.18ZM84.09,87.45a1,1,0,1,0,1,1A1,1,0,0,0,84.09,87.45ZM97,78.4a1,1,0,1,0,1,1A1,1,0,0,0,97,78.4Zm13.9,19.74a1,1,0,1,0,0,2,1,1,0,0,0,0-2Zm18.51-5.91a1,1,0,1,0,1,1A1,1,0,0,0,129.38,92.23Zm-6-5.07a1,1,0,0,0-1,1,1,1,0,1,0,1-1Zm-1.77,16.76a1,1,0,1,0,1,1A1,1,0,0,0,121.62,103.92Zm0,13.9a1,1,0,1,0,1,1A1,1,0,0,0,121.62,117.82Zm0,8.11a1,1,0,0,0-.16,2h.33a1,1,0,0,0-.17-2Zm-7-47.53a1,1,0,1,0,1,1A1,1,0,0,0,114.66,78.4Zm-3.79,19.74a1,1,0,1,0,0,2,1,1,0,0,0,0-2ZM108.82,106a1,1,0,1,0,0,2,1,1,0,0,0,0-2Zm-3-27.57a1,1,0,1,0,1,1A1,1,0,0,0,105.79,78.4Zm-3,21.78a1,1,0,1,0,1,1A1,1,0,0,0,102.75,100.18ZM97,78.4a1,1,0,1,0,1,1A1,1,0,0,0,97,78.4ZM96,94.12a1,1,0,1,0,1,1A1,1,0,0,0,96,94.12Zm-3-7a1,1,0,0,0-1,1,1,1,0,1,0,1-1ZM84.09,78.4a1,1,0,1,0,0,2,1,1,0,0,0,0-2Zm0,9a1,1,0,1,0,1,1A1,1,0,0,0,84.09,87.45Zm-3.73,6.67a1,1,0,1,0,1,1A1,1,0,0,0,80.36,94.12Zm0,0a1,1,0,1,0,1,1A1,1,0,0,0,80.36,94.12Zm15.63,0a1,1,0,1,0,1,1A1,1,0,0,0,96,94.12Zm-3-7a1,1,0,0,0-1,1,1,1,0,1,0,1-1Zm9.79,13a1,1,0,1,0,1,1A1,1,0,0,0,102.75,100.18ZM84.09,87.45a1,1,0,1,0,1,1A1,1,0,0,0,84.09,87.45ZM97,78.4a1,1,0,1,0,1,1A1,1,0,0,0,97,78.4Zm13.9,19.74a1,1,0,1,0,0,2,1,1,0,0,0,0-2Zm18.51-5.91a1,1,0,1,0,1,1A1,1,0,0,0,129.38,92.23Zm-6-5.07a1,1,0,0,0-1,1,1,1,0,1,0,1-1Zm-1.77,38.77a1,1,0,0,0-.16,2h.33a1,1,0,0,0-.17-2Zm0-22a1,1,0,1,0,1,1A1,1,0,0,0,121.62,103.92Zm0,13.9a1,1,0,1,0,1,1A1,1,0,0,0,121.62,117.82Zm-7-39.42a1,1,0,1,0,1,1A1,1,0,0,0,114.66,78.4Zm-3.79,19.74a1,1,0,1,0,0,2,1,1,0,0,0,0-2ZM105.79,78.4a1,1,0,1,0,1,1A1,1,0,0,0,105.79,78.4Zm-3,21.78a1,1,0,1,0,1,1A1,1,0,0,0,102.75,100.18ZM97,78.4a1,1,0,1,0,1,1A1,1,0,0,0,97,78.4ZM96,94.12a1,1,0,1,0,1,1A1,1,0,0,0,96,94.12Zm-3-7a1,1,0,0,0-1,1,1,1,0,1,0,1-1ZM84.09,78.4a1,1,0,1,0,0,2,1,1,0,0,0,0-2Zm0,9a1,1,0,1,0,1,1A1,1,0,0,0,84.09,87.45Zm-3.73,6.67a1,1,0,1,0,1,1A1,1,0,0,0,80.36,94.12Zm3.73-6.67a1,1,0,1,0,1,1A1,1,0,0,0,84.09,87.45ZM97,78.4a1,1,0,1,0,1,1A1,1,0,0,0,97,78.4Zm13.9,19.74a1,1,0,1,0,0,2,1,1,0,0,0,0-2ZM93,87.16a1,1,0,0,0-1,1,1,1,0,1,0,1-1Zm9.79,13a1,1,0,1,0,1,1A1,1,0,0,0,102.75,100.18ZM80.36,94.12a1,1,0,1,0,1,1A1,1,0,0,0,80.36,94.12Zm15.63,0a1,1,0,1,0,1,1A1,1,0,0,0,96,94.12Zm33.39-1.89a1,1,0,1,0,1,1A1,1,0,0,0,129.38,92.23Zm-6-5.07a1,1,0,0,0-1,1,1,1,0,1,0,1-1Zm-1.77,38.77a1,1,0,0,0-.16,2h.33a1,1,0,0,0-.17-2Zm0-22a1,1,0,1,0,1,1A1,1,0,0,0,121.62,103.92Zm0,13.9a1,1,0,1,0,1,1A1,1,0,0,0,121.62,117.82Zm-7-39.42a1,1,0,1,0,1,1A1,1,0,0,0,114.66,78.4Zm-3.79,19.74a1,1,0,1,0,0,2,1,1,0,0,0,0-2ZM105.79,78.4a1,1,0,1,0,1,1A1,1,0,0,0,105.79,78.4Zm-3,21.78a1,1,0,1,0,1,1A1,1,0,0,0,102.75,100.18ZM97,78.4a1,1,0,1,0,1,1A1,1,0,0,0,97,78.4ZM96,94.12a1,1,0,1,0,1,1A1,1,0,0,0,96,94.12Zm-3-7a1,1,0,0,0-1,1,1,1,0,1,0,1-1Zm-8.87.29a1,1,0,1,0,1,1A1,1,0,0,0,84.09,87.45Zm-3.73,6.67a1,1,0,1,0,1,1A1,1,0,0,0,80.36,94.12Zm3.73-6.67a1,1,0,1,0,1,1A1,1,0,0,0,84.09,87.45ZM97,78.4a1,1,0,1,0,1,1A1,1,0,0,0,97,78.4Zm13.9,19.74a1,1,0,1,0,0,2,1,1,0,0,0,0-2Zm-30.51-4a1,1,0,1,0,1,1A1,1,0,0,0,80.36,94.12Zm15.63,0a1,1,0,1,0,1,1A1,1,0,0,0,96,94.12Zm33.39-1.89a1,1,0,1,0,1,1A1,1,0,0,0,129.38,92.23Zm-6-5.07a1,1,0,0,0-1,1,1,1,0,1,0,1-1Zm-1.77,38.77a1,1,0,0,0-.16,2h.33a1,1,0,0,0-.17-2Zm0-22a1,1,0,1,0,1,1A1,1,0,0,0,121.62,103.92Zm0,13.9a1,1,0,1,0,1,1A1,1,0,0,0,121.62,117.82Zm-7-39.42a1,1,0,1,0,1,1A1,1,0,0,0,114.66,78.4Zm-3.79,19.74a1,1,0,1,0,0,2,1,1,0,0,0,0-2ZM105.79,78.4a1,1,0,1,0,1,1A1,1,0,0,0,105.79,78.4ZM97,78.4a1,1,0,1,0,1,1A1,1,0,0,0,97,78.4ZM96,94.12a1,1,0,1,0,1,1A1,1,0,0,0,96,94.12Zm-11.9-6.67a1,1,0,1,0,1,1A1,1,0,0,0,84.09,87.45Zm-3.73,6.67a1,1,0,1,0,1,1A1,1,0,0,0,80.36,94.12ZM97,78.4a1,1,0,1,0,1,1A1,1,0,0,0,97,78.4Zm13.9,19.74a1,1,0,1,0,0,2,1,1,0,0,0,0-2Zm18.51-5.91a1,1,0,1,0,1,1A1,1,0,0,0,129.38,92.23Zm-6-5.07a1,1,0,0,0-1,1,1,1,0,1,0,1-1Zm-1.77,38.77a1,1,0,0,0-.16,2h.33a1,1,0,0,0-.17-2Zm0-22a1,1,0,1,0,1,1A1,1,0,0,0,121.62,103.92Zm0,13.9a1,1,0,1,0,1,1A1,1,0,0,0,121.62,117.82Zm-7-39.42a1,1,0,1,0,1,1A1,1,0,0,0,114.66,78.4Zm-3.79,19.74a1,1,0,1,0,0,2,1,1,0,0,0,0-2ZM105.79,78.4a1,1,0,1,0,1,1A1,1,0,0,0,105.79,78.4ZM97,78.4a1,1,0,1,0,1,1A1,1,0,0,0,97,78.4Zm32.41,13.83a1,1,0,1,0,1,1A1,1,0,0,0,129.38,92.23Zm-6-5.07a1,1,0,0,0-1,1,1,1,0,1,0,1-1Zm-1.77,38.77a1,1,0,0,0-.16,2h.33a1,1,0,0,0-.17-2Zm0-22a1,1,0,1,0,1,1A1,1,0,0,0,121.62,103.92Zm0,13.9a1,1,0,1,0,1,1A1,1,0,0,0,121.62,117.82Zm-7-39.42a1,1,0,1,0,1,1A1,1,0,0,0,114.66,78.4Zm-8.87,0a1,1,0,1,0,1,1A1,1,0,0,0,105.79,78.4Zm23.59,13.83a1,1,0,1,0,1,1A1,1,0,0,0,129.38,92.23Zm-6-5.07a1,1,0,0,0-1,1,1,1,0,1,0,1-1Zm-1.77,38.77a1,1,0,0,0-.16,2h.33a1,1,0,0,0-.17-2Zm0-8.11a1,1,0,1,0,1,1A1,1,0,0,0,121.62,117.82Zm-7-39.42a1,1,0,1,0,1,1A1,1,0,0,0,114.66,78.4Zm8.73,8.76a1,1,0,0,0-1,1,1,1,0,1,0,1-1Zm-1.77,38.77a1,1,0,0,0-.16,2h.33a1,1,0,0,0-.17-2Zm0-8.11a1,1,0,1,0,1,1A1,1,0,0,0,121.62,117.82Z"/><path class="cls-1" d="M109.16,264.78v13.11h-1V264.78h-4.9v-.95h10.84v.95Z"/><path class="cls-1" d="M117.23,277.89V263.83h10v.95h-9v5.56h8v.94h-8V277h9.06v.94Z"/><path class="cls-1" d="M142.44,277.89,140.65,274h-8.29l-1.79,3.93h-1.09L136,263.73h1l6.54,14.16Zm-5.93-13L132.8,273h7.41Z"/><path class="cls-1" d="M158.77,277.89V265.68l-5.57,8.1h-.08l-5.56-8.1v12.21h-1V263.83h1l5.64,8.32,5.65-8.32h1v14.06Z"/><path class="cls-1" d="M53.32,266.69v11.2H50.23v-11.2H46v-2.86H57.6v2.86Z"/><path class="cls-1" d="M60,277.89V263.83H70.55v2.75H63v2.86h6.63v2.75H63v2.95h7.63v2.75Z"/><path class="cls-1" d="M84.65,276.67A6.5,6.5,0,0,1,81.86,278a8.7,8.7,0,0,1-1.85.17,7.17,7.17,0,0,1-2.87-.56,6.91,6.91,0,0,1-3.79-3.84,7.21,7.21,0,0,1-.55-2.83v0a7.39,7.39,0,0,1,2-5.13,7.11,7.11,0,0,1,2.31-1.57,7.56,7.56,0,0,1,3-.57,9.87,9.87,0,0,1,1.8.16,7.78,7.78,0,0,1,1.48.45,5.79,5.79,0,0,1,1.22.68,8.9,8.9,0,0,1,1.05.88l-2,2.27A7.57,7.57,0,0,0,82,266.87a4.17,4.17,0,0,0-1.92-.43,3.85,3.85,0,0,0-1.63.35,3.71,3.71,0,0,0-1.3.94,4.39,4.39,0,0,0-.84,1.4,4.69,4.69,0,0,0-.3,1.69v0a4.84,4.84,0,0,0,.3,1.71,4.61,4.61,0,0,0,.83,1.41,3.83,3.83,0,0,0,1.29.95,3.9,3.9,0,0,0,1.65.35,4.33,4.33,0,0,0,2-.44,8,8,0,0,0,1.66-1.21l2,2A10,10,0,0,1,84.65,276.67Z"/><path class="cls-1" d="M97,277.89v-5.64h-5.7v5.64H88.25V263.83h3.09v5.57H97v-5.57h3.1v14.06Z"/><line class="cls-1" x1="164.87" y1="270.86" x2="205.49" y2="270.86"/><rect class="cls-1" x="164.87" y="269.98" width="40.62" height="1.77"/><line class="cls-1" y1="270.86" x2="40.62" y2="270.86"/><rect class="cls-1" y="269.98" width="40.62" height="1.77"/><path class="cls-1" d="M16.11,216.28H26.19l16.07,38H31l-2.75-6.74H13.74L11,254.29H.05Zm9.16,23.13-4.2-10.73-4.26,10.73Z"/><path class="cls-1" d="M45.92,216.55H62.1c9.54,0,15.68,4.91,15.68,13.26v.11c0,8.9-6.84,13.59-16.22,13.59H56.38v10.78H45.92Zm15.42,18.76c3.72,0,6-1.94,6-4.9v-.11c0-3.24-2.26-5-6-5H56.38v10Z"/><path class="cls-1" d="M91.48,216.28h10.08l16.06,38H106.41l-2.75-6.74H89.1l-2.69,6.74h-11Zm9.16,23.13-4.2-10.73-4.26,10.73Z"/><path class="cls-1" d="M121.29,216.55h17.84c5.77,0,9.76,1.51,12.29,4.1a11.7,11.7,0,0,1,3.35,8.79v.1A11.93,11.93,0,0,1,147,241.13l9,13.16H143.93l-7.6-11.43h-4.58v11.43H121.29Zm17.36,18.11c3.56,0,5.6-1.72,5.6-4.47v-.11c0-3-2.15-4.47-5.66-4.47h-6.84v9Z"/><path class="cls-1" d="M158,232.13c3.61-.38,5.55-2.16,5.39-5.07h-4.1V216.55h10.62v8.57c0,8-4.31,10.73-11.05,10.95Z"/><path class="cls-1" d="M172.5,248.68l5.83-7a19.45,19.45,0,0,0,12.23,4.52c2.81,0,4.32-1,4.32-2.58v-.11c0-1.56-1.24-2.43-6.36-3.61-8-1.84-14.24-4.1-14.24-11.86V228c0-7,5.56-12.08,14.61-12.08,6.42,0,11.43,1.73,15.53,5l-5.23,7.38a19,19,0,0,0-10.57-3.72c-2.53,0-3.77,1.08-3.77,2.43v.11c0,1.72,1.29,2.48,6.52,3.66,8.68,1.89,14.07,4.69,14.07,11.76v.1c0,7.71-6.09,12.29-15.25,12.29A26.38,26.38,0,0,1,172.5,248.68Z"/></g></g></svg>